<?xml version="1.0" encoding="utf-8"?>
<!-- Generator: Adobe Illustrator 24.0.2, SVG Export Plug-In . SVG Version: 6.00 Build 0)  -->
<svg version="1.1" id="Layer_1" xmlns="http://www.w3.org/2000/svg" xmlns:xlink="http://www.w3.org/1999/xlink" x="0px" y="0px"
	 viewBox="0 0 500 500" style="enable-background:new 0 0 500 500;" xml:space="preserve">
<style type="text/css">
	.st0{fill:#FEDE40;}
	.st1{fill:#FEBD40;}
	.st2{fill:#FEE152;}
	.st3{fill:#FEDA7B;}
	.st4{fill:#4F4F4F;}
	.st5{fill:#E0E5EF;}
</style>
<path class="st0" d="M58.1,242.9c0-2.7,0-5.5,0-8.2c0.9-5.4,0.6-10.9,1.3-16.3c2-15,6.6-29.4,12.5-43.3C82.6,150,98,128,118,109.5
	C146.6,83,180.1,66,218.7,59.8c9.6-1.5,19.3-1.4,29.1-1.4c1.2,0,2.3,0,2.9,1.3c0.8,1.8,0.6,3.7,0.6,5.5c0,93.3,0,186.5,0,279.8
	c0,1.7,0.1,3.5-0.4,5.2c-1.4,3.1-4.2,2.8-6.8,2.6c-11.7-0.9-23.2-3.3-34-7.9c-23-9.8-40.2-25.9-51.8-48c-2-3.8-2.2-3.9-6-2.3
	c-3.6,1.5-7.1,3.1-10.6,4.6c-2.5,1.1-2.7,2.4-1.6,4.6c4.2,8.5,9.2,16.5,15.3,23.8c19.2,23,43.6,37.1,72.9,42.7
	c5.6,1.1,11.3,1.7,17,1.9c2.1,0.1,4.3,0.1,5.4,2.5c0.6,1.2,0.5,2.4,0.5,3.7c0.1,19.4,0.1,38.9,0,58.3c0,1.9,0.1,3.8-1.6,5.1
	c-5.2,0-10.5,0-15.7,0c-5.4-1-10.9-0.6-16.3-1.4c-15.4-2.1-30.1-6.8-44.3-13c-24.8-10.7-46.6-26-64.9-45.8
	c-25.1-27.1-41.6-58.9-48.6-95.3c-1.1-5.9-1-11.9-1.5-17.8c-0.1-0.8,0.3-1.8-0.4-2.5c0-2.7,0-5.5,0-8.2c0.6-1.5,0.6-3,0-4.5
	c0-2,0-4,0-6C58.7,245.9,58.7,244.4,58.1,242.9z"/>
<path class="st1" d="M275.8,440.3c-3.7,0.5-7.6,0.3-11.2,1.6c-0.5,0-1,0-1.5,0c-1.2-0.6-2.5-0.6-3.7,0c-3.2,0-6.5,0-9.7,0
	c0-22.7,0-45.3,0-68c0.1-0.2,0.2-0.4,0.3-0.6c1.1-1.1,2.4-1.1,3.8-1.1c6.2,0,12.2-1.2,18.3-2c1.8-0.3,3.7-0.9,5.4,0.4
	c1.1,1.8,0.5,3.6,0.1,5.4c-2.6,11.3-4.2,22.7-3.9,34.3c0.2,7.7,1.1,15.3,2.6,22.9C276.8,435.6,277.1,438,275.8,440.3z"/>
<path class="st2" d="M58.1,242.9c1.1,1.5,1,3,0,4.5C58.1,245.9,58.1,244.4,58.1,242.9z"/>
<path class="st2" d="M58.1,253.4c1,1.5,1.1,3,0,4.5C58.1,256.4,58.1,254.9,58.1,253.4z"/>
<path class="st3" d="M259.4,441.9c1.2-0.9,2.5-1.2,3.7,0C261.8,441.9,260.6,441.9,259.4,441.9z"/>
<path class="st1" d="M249.6,59c30.2-0.5,58.9,6.3,85.5,20.2c55.5,29,89.9,74.3,102.7,135.7c4.1,19.5,4.5,39.3,1.8,59.1
	c-0.1,0.9-0.1,1.7-0.1,2.6c-2.4,1.3-4.8,0.8-7.2,0.4c-41.2-7.6-77.9,2.2-110.5,28.2c-12.5,10-22.3,22.3-30.4,36
	c-0.9,1.5-1.7,3.1-3.4,3.8c-10.5,5.4-22.1,6.7-33.6,7.9c-1.4,0.1-2.8,0.2-4-0.6c-0.4-0.2-0.6-0.6-0.8-1
	C249.6,253.8,249.6,156.4,249.6,59z"/>
<path class="st4" d="M216,216.8c-0.3,12.5-3.3,24-11.4,33.7c-12.3,14.8-32.5,14.7-44.7-0.1c-15-18-15.1-48.9-0.3-67.1
	c12.4-15.2,32.7-15.4,45.2-0.2C212.9,192.9,215.7,204.4,216,216.8z"/>
<path class="st4" d="M249.6,374c-20.8-0.4-40.5-5-58.8-15c-23.7-13-41.3-31.7-53.1-56c-1.3-2.7-0.7-3.6,1.8-4.6
	c4.7-1.9,9.4-3.9,14-6.1c2.5-1.2,3.6-1,4.9,1.8c13.1,26.6,33.9,44.5,62.4,53.2c9.3,2.9,18.9,4.4,28.7,4.1c0,0,0,0.3,0,0.3
	c1.2,0.9,1.6,2.2,1.6,3.6c0.1,5,0.1,10,0,14.9c0,1.4-0.4,2.7-1.6,3.6L249.6,374z"/>
<path class="st5" d="M287.8,343.9c6.5-10.9,13.6-21.4,22.7-30.5c23.4-23.4,51.5-37,84.6-40c14.2-1.3,28.1-0.2,41.9,2.9
	c0.8,0.2,1.7,0.2,2.6,0.3c-1.9,1.8-3.8,3.6-5.7,5.4c-50.8,50.8-101.6,101.6-152.5,152.5c-1.9,1.9-3.8,3.9-5.7,5.9
	c-1-6.4-2.2-12.7-2.9-19.1c-2-17-0.2-33.8,4.2-50.3c-1.1-1.6-0.6-3.4-0.1-5c2-6.2,4.5-12.3,7.4-18.1
	C285.2,346.2,286.6,345.2,287.8,343.9z"/>
<path d="M287.8,343.9c-4.1,8.8-8,17.6-10.7,27c-9.1,1.8-18.1,3.4-27.5,2.8c0-7.4,0-14.8,0-22.2C262.7,350.9,275.5,348.7,287.8,343.9
	z"/>
<path d="M350.7,216.8c-0.4,12.4-3.3,24-11.4,33.7c-12.3,14.7-32.5,14.7-44.7-0.1c-15-18.1-15.1-48.9-0.2-67.1
	c12.4-15.2,32.7-15.3,45.2-0.1C347.6,193,350.4,204.5,350.7,216.8z"/>
</svg>
